<?xml version="1.0" encoding="iso-8859-1"?>
<!-- Generator: Adobe Illustrator 19.0.0, SVG Export Plug-In . SVG Version: 6.00 Build 0)  -->
<svg version="1.1" id="Layer_1" xmlns="http://www.w3.org/2000/svg" xmlns:xlink="http://www.w3.org/1999/xlink" x="0px" y="0px"
	 viewBox="0 0 445 445" style="enable-background:new 0 0 445 445;" xml:space="preserve">
<g>
	<path style="fill:#2488FF;" d="M358.598,30h-34.536V0h-40v30h-35.414v40h35.414v65.996c-20.992-18.648-48.608-29.995-78.829-29.995
		c-65.523,0-118.83,53.307-118.83,118.83v29.681c0,65.522,53.307,118.829,118.83,118.829c30.221,0,57.837-11.346,78.829-29.995
		v26.85h40V254.512v-29.681V70h34.536V30z M205.232,333.341c-43.467,0-78.83-35.362-78.83-78.829v-29.681
		c0-43.467,35.363-78.83,78.83-78.83s78.829,35.363,78.829,78.83v29.681C284.062,297.979,248.699,333.341,205.232,333.341z"/>
	<rect x="86.402" y="405" style="fill:#2488FF;" width="237.659" height="40"/>
</g>
<g>
</g>
<g>
</g>
<g>
</g>
<g>
</g>
<g>
</g>
<g>
</g>
<g>
</g>
<g>
</g>
<g>
</g>
<g>
</g>
<g>
</g>
<g>
</g>
<g>
</g>
<g>
</g>
<g>
</g>
</svg>
